# xmcd
#
# Track frame offsets:
#	150
#	16575
#	36341
#	50216
#	65104
#	80861
#	95074
#	114762
#	135948
#	151698
#	171644
#
# Disc length: 2530 seconds
#
# Revision: 0
# Processed by: cddbd v1.5.1PL2 Copyright (c) Steve Scherf et al.
# Submitted via: audiograbber 1.83.01
#
DISCID=9109e00b
DTITLE=The Gallus Brothers - Suitcase Rag
DYEAR=2006
DGENRE=Blues
TTITLE0=Bad Dream Blues
TTITLE1=Too Bad West Coast Blues
TTITLE2=Prison Wall Blues
TTITLE3=Willie the Chimney Sweeper
TTITLE4=Nobody's Sweetheart
TTITLE5=Gallus Stomp
TTITLE6=Rag Mama
TTITLE7=Drunken Barroom Blues
TTITLE8=The Last Steam Engine Train
TTITLE9=Untrue Blues
TTITLE10=Thunder Cat's Rag
EXTD=http://www.myspace.com/gallusbrothers
EXTT0=
EXTT1=
EXTT2=
EXTT3=
EXTT4=
EXTT5=
EXTT6=
EXTT7=
EXTT8=
EXTT9=
EXTT10=
PLAYORDER=
